<mxfile host="Electron" agent="Mozilla/5.0 (Windows NT 10.0; Win64; x64) AppleWebKit/537.36 (KHTML, like Gecko) draw.io/26.0.15 Chrome/132.0.6834.196 Electron/34.2.0 Safari/537.36" version="26.0.15">
  <diagram name="Page-1" id="YmlemgGiOCqMfG_zaBAN">
    <mxGraphModel dx="654" dy="478" grid="1" gridSize="10" guides="1" tooltips="1" connect="1" arrows="1" fold="1" page="1" pageScale="1" pageWidth="850" pageHeight="1100" math="0" shadow="0">
      <root>
        <mxCell id="0" />
        <mxCell id="1" parent="0" />
        <mxCell id="26Q9ooZOoZMwg1ehPb2V-1" value="Diagram Activity&amp;nbsp; Admin Input Nilai Matriks" style="swimlane;whiteSpace=wrap;html=1;" vertex="1" parent="1">
          <mxGeometry x="20" width="430" height="570" as="geometry" />
        </mxCell>
        <mxCell id="26Q9ooZOoZMwg1ehPb2V-22" style="edgeStyle=orthogonalEdgeStyle;rounded=0;orthogonalLoop=1;jettySize=auto;html=1;entryX=0;entryY=0.5;entryDx=0;entryDy=0;" edge="1" parent="26Q9ooZOoZMwg1ehPb2V-1" source="26Q9ooZOoZMwg1ehPb2V-3" target="26Q9ooZOoZMwg1ehPb2V-14">
          <mxGeometry relative="1" as="geometry" />
        </mxCell>
        <mxCell id="26Q9ooZOoZMwg1ehPb2V-3" value="Menampilkan Data Table Alternatif dan Kriteria" style="rounded=0;whiteSpace=wrap;html=1;" vertex="1" parent="26Q9ooZOoZMwg1ehPb2V-1">
          <mxGeometry x="110" y="210" width="120" height="60" as="geometry" />
        </mxCell>
        <mxCell id="26Q9ooZOoZMwg1ehPb2V-27" style="edgeStyle=orthogonalEdgeStyle;rounded=0;orthogonalLoop=1;jettySize=auto;html=1;entryX=0.5;entryY=1;entryDx=0;entryDy=0;" edge="1" parent="26Q9ooZOoZMwg1ehPb2V-1" source="26Q9ooZOoZMwg1ehPb2V-8" target="26Q9ooZOoZMwg1ehPb2V-25">
          <mxGeometry relative="1" as="geometry" />
        </mxCell>
        <mxCell id="26Q9ooZOoZMwg1ehPb2V-8" value="Database" style="rounded=0;whiteSpace=wrap;html=1;" vertex="1" parent="26Q9ooZOoZMwg1ehPb2V-1">
          <mxGeometry x="110" y="470" width="120" height="60" as="geometry" />
        </mxCell>
        <mxCell id="26Q9ooZOoZMwg1ehPb2V-20" style="edgeStyle=orthogonalEdgeStyle;rounded=0;orthogonalLoop=1;jettySize=auto;html=1;entryX=0.5;entryY=0;entryDx=0;entryDy=0;exitX=0.75;exitY=1;exitDx=0;exitDy=0;" edge="1" parent="26Q9ooZOoZMwg1ehPb2V-1" source="26Q9ooZOoZMwg1ehPb2V-11" target="26Q9ooZOoZMwg1ehPb2V-3">
          <mxGeometry relative="1" as="geometry">
            <Array as="points">
              <mxPoint x="290" y="180" />
              <mxPoint x="170" y="180" />
            </Array>
          </mxGeometry>
        </mxCell>
        <mxCell id="26Q9ooZOoZMwg1ehPb2V-11" value="Matriks Penilaian" style="rounded=0;whiteSpace=wrap;html=1;" vertex="1" parent="26Q9ooZOoZMwg1ehPb2V-1">
          <mxGeometry x="200" y="45" width="120" height="60" as="geometry" />
        </mxCell>
        <mxCell id="26Q9ooZOoZMwg1ehPb2V-24" style="edgeStyle=orthogonalEdgeStyle;rounded=0;orthogonalLoop=1;jettySize=auto;html=1;entryX=0.5;entryY=0;entryDx=0;entryDy=0;" edge="1" parent="26Q9ooZOoZMwg1ehPb2V-1" source="26Q9ooZOoZMwg1ehPb2V-14" target="26Q9ooZOoZMwg1ehPb2V-15">
          <mxGeometry relative="1" as="geometry" />
        </mxCell>
        <mxCell id="26Q9ooZOoZMwg1ehPb2V-14" value="Edit Alternatif" style="rounded=0;whiteSpace=wrap;html=1;" vertex="1" parent="26Q9ooZOoZMwg1ehPb2V-1">
          <mxGeometry x="270" y="210" width="120" height="60" as="geometry" />
        </mxCell>
        <mxCell id="26Q9ooZOoZMwg1ehPb2V-36" style="edgeStyle=orthogonalEdgeStyle;rounded=0;orthogonalLoop=1;jettySize=auto;html=1;entryX=1;entryY=0.5;entryDx=0;entryDy=0;exitX=0.5;exitY=1;exitDx=0;exitDy=0;" edge="1" parent="26Q9ooZOoZMwg1ehPb2V-1" source="26Q9ooZOoZMwg1ehPb2V-15" target="26Q9ooZOoZMwg1ehPb2V-8">
          <mxGeometry relative="1" as="geometry" />
        </mxCell>
        <mxCell id="26Q9ooZOoZMwg1ehPb2V-37" value="Submit" style="edgeLabel;html=1;align=center;verticalAlign=middle;resizable=0;points=[];" vertex="1" connectable="0" parent="26Q9ooZOoZMwg1ehPb2V-36">
          <mxGeometry x="0.217" y="2" relative="1" as="geometry">
            <mxPoint as="offset" />
          </mxGeometry>
        </mxCell>
        <mxCell id="26Q9ooZOoZMwg1ehPb2V-15" value="&lt;span style=&quot;text-align: left;&quot;&gt;Nilai Matriks :&lt;/span&gt;&lt;div style=&quot;text-align: left;&quot;&gt;&lt;br&gt;&lt;/div&gt;&lt;span style=&quot;color: light-dark(rgb(0, 0, 0), rgb(255, 255, 255)); background-color: transparent;&quot;&gt;&lt;div style=&quot;text-align: left;&quot;&gt;&lt;span style=&quot;background-color: transparent; color: light-dark(rgb(0, 0, 0), rgb(255, 255, 255));&quot;&gt;Kode Alternatif&lt;/span&gt;&lt;/div&gt;&lt;/span&gt;&lt;span style=&quot;color: light-dark(rgb(0, 0, 0), rgb(255, 255, 255)); background-color: transparent;&quot;&gt;&lt;div style=&quot;text-align: left;&quot;&gt;Kode Kriteria&lt;/div&gt;&lt;/span&gt;" style="rounded=0;whiteSpace=wrap;html=1;" vertex="1" parent="26Q9ooZOoZMwg1ehPb2V-1">
          <mxGeometry x="270" y="330" width="120" height="120" as="geometry" />
        </mxCell>
        <mxCell id="26Q9ooZOoZMwg1ehPb2V-18" value="&lt;span style=&quot;white-space: pre;&quot;&gt;&#x9;&lt;span style=&quot;white-space: pre;&quot;&gt;&#x9;&lt;/span&gt;&lt;/span&gt;&lt;div&gt;&lt;br&gt;&lt;/div&gt;&lt;div&gt;&lt;br&gt;&lt;/div&gt;&lt;div&gt;&lt;br&gt;&lt;/div&gt;&lt;div&gt;&lt;br&gt;&lt;/div&gt;&lt;div&gt;&lt;br&gt;&lt;/div&gt;&lt;div&gt;&amp;nbsp;START&lt;/div&gt;" style="ellipse;shape=doubleEllipse;whiteSpace=wrap;html=1;aspect=fixed;fillColor=light-dark(#33FF33,var(--ge-dark-color, #121212));" vertex="1" parent="26Q9ooZOoZMwg1ehPb2V-1">
          <mxGeometry x="65" y="60" width="30" height="30" as="geometry" />
        </mxCell>
        <mxCell id="26Q9ooZOoZMwg1ehPb2V-19" style="edgeStyle=orthogonalEdgeStyle;rounded=0;orthogonalLoop=1;jettySize=auto;html=1;entryX=0;entryY=0.5;entryDx=0;entryDy=0;" edge="1" parent="26Q9ooZOoZMwg1ehPb2V-1" source="26Q9ooZOoZMwg1ehPb2V-18" target="26Q9ooZOoZMwg1ehPb2V-11">
          <mxGeometry relative="1" as="geometry" />
        </mxCell>
        <mxCell id="26Q9ooZOoZMwg1ehPb2V-31" style="edgeStyle=orthogonalEdgeStyle;rounded=0;orthogonalLoop=1;jettySize=auto;html=1;entryX=0.5;entryY=1;entryDx=0;entryDy=0;" edge="1" parent="26Q9ooZOoZMwg1ehPb2V-1" source="26Q9ooZOoZMwg1ehPb2V-25" target="26Q9ooZOoZMwg1ehPb2V-30">
          <mxGeometry relative="1" as="geometry" />
        </mxCell>
        <mxCell id="26Q9ooZOoZMwg1ehPb2V-33" value="No" style="edgeLabel;html=1;align=center;verticalAlign=middle;resizable=0;points=[];" vertex="1" connectable="0" parent="26Q9ooZOoZMwg1ehPb2V-31">
          <mxGeometry x="-0.5627" y="-3" relative="1" as="geometry">
            <mxPoint x="-9" y="3" as="offset" />
          </mxGeometry>
        </mxCell>
        <mxCell id="26Q9ooZOoZMwg1ehPb2V-34" style="edgeStyle=orthogonalEdgeStyle;rounded=0;orthogonalLoop=1;jettySize=auto;html=1;entryX=0.5;entryY=1;entryDx=0;entryDy=0;" edge="1" parent="26Q9ooZOoZMwg1ehPb2V-1" source="26Q9ooZOoZMwg1ehPb2V-25" target="26Q9ooZOoZMwg1ehPb2V-3">
          <mxGeometry relative="1" as="geometry" />
        </mxCell>
        <mxCell id="26Q9ooZOoZMwg1ehPb2V-35" value="Yes" style="edgeLabel;html=1;align=center;verticalAlign=middle;resizable=0;points=[];" vertex="1" connectable="0" parent="26Q9ooZOoZMwg1ehPb2V-34">
          <mxGeometry x="-0.2848" y="-1" relative="1" as="geometry">
            <mxPoint as="offset" />
          </mxGeometry>
        </mxCell>
        <mxCell id="26Q9ooZOoZMwg1ehPb2V-25" value="" style="rhombus;whiteSpace=wrap;html=1;" vertex="1" parent="26Q9ooZOoZMwg1ehPb2V-1">
          <mxGeometry x="145" y="375" width="50" height="30" as="geometry" />
        </mxCell>
        <mxCell id="26Q9ooZOoZMwg1ehPb2V-32" style="edgeStyle=orthogonalEdgeStyle;rounded=0;orthogonalLoop=1;jettySize=auto;html=1;entryX=0.25;entryY=1;entryDx=0;entryDy=0;" edge="1" parent="26Q9ooZOoZMwg1ehPb2V-1" source="26Q9ooZOoZMwg1ehPb2V-30" target="26Q9ooZOoZMwg1ehPb2V-11">
          <mxGeometry relative="1" as="geometry">
            <Array as="points">
              <mxPoint x="55" y="150" />
              <mxPoint x="230" y="150" />
            </Array>
          </mxGeometry>
        </mxCell>
        <mxCell id="26Q9ooZOoZMwg1ehPb2V-30" value="Belum Ada Data" style="rounded=1;whiteSpace=wrap;html=1;" vertex="1" parent="26Q9ooZOoZMwg1ehPb2V-1">
          <mxGeometry x="15" y="330" width="80" height="30" as="geometry" />
        </mxCell>
      </root>
    </mxGraphModel>
  </diagram>
</mxfile>
